<svg width="24" height="24" viewBox="0 0 24 24" fill="none" xmlns="http://www.w3.org/2000/svg">
<path fill-rule="evenodd" clip-rule="evenodd" d="M5.80952 2H18.1905C20.2944 2 22 3.70558 22 5.80952V18.1905C22 20.2944 20.2944 22 18.1905 22H5.80952C3.70558 22 2 20.2944 2 18.1905V5.80952C2 3.70558 3.70558 2 5.80952 2ZM17.2381 13.1905C17.6326 13.1905 17.9524 12.8707 17.9524 12.4762V9.58095C17.9473 9.18861 17.6304 8.8718 17.2381 8.86667H14.381C13.9865 8.86667 13.6667 9.18646 13.6667 9.58095C13.6667 9.97544 13.9865 10.2952 14.381 10.2952H15.2286L11.8381 13.6857L9.93333 11.781C9.42788 11.2772 8.61022 11.2772 8.10476 11.781L5.65714 14.2286C5.37862 14.5074 5.37862 14.9592 5.65714 15.2381C5.79037 15.373 5.97232 15.4485 6.1619 15.4476C6.35171 15.4496 6.53407 15.3739 6.66667 15.2381L9.05714 12.9524L10.9619 14.8571C11.4674 15.3609 12.285 15.3609 12.7905 14.8571L16.5238 11.0952V12.4762C16.5238 12.8707 16.8436 13.1905 17.2381 13.1905Z" fill="black"/>
</svg>
