<svg width="30" height="31" viewBox="0 0 30 31" fill="none" xmlns="http://www.w3.org/2000/svg">
<path d="M26.7799 3.72L13.9399 3.72L13.9399 14.42L19.2899 10.14L26.7799 10.14V3.72Z" stroke="#9095A1" stroke-width="2.568" stroke-miterlimit="10" stroke-linecap="square"/>
<path d="M12.855 26.0345C12.855 25.3882 12.5714 24.773 12.0653 24.3717C11.2917 23.7576 9.94993 23 8.03998 23C6.13003 23 4.78825 23.7576 4.01464 24.3717C3.50853 24.773 3.22498 25.3882 3.22498 26.0345V27.28L12.855 27.28L12.855 26.0345Z" stroke="#9095A1" stroke-width="2.568" stroke-miterlimit="10" stroke-linecap="round"/>
<path d="M8.03999 19.785C9.51735 19.785 10.715 18.5874 10.715 17.11C10.715 15.6326 9.51735 14.435 8.03999 14.435C6.56263 14.435 5.36499 15.6326 5.36499 17.11C5.36499 18.5874 6.56263 19.785 8.03999 19.785Z" stroke="#9095A1" stroke-width="2.568" stroke-miterlimit="10" stroke-linecap="square"/>
<path d="M26.775 26.0345C26.775 25.3882 26.4915 24.773 25.9854 24.3717C25.2117 23.7576 23.87 23 21.96 23C20.0501 23 18.7083 23.7576 17.9347 24.3717C17.4286 24.773 17.145 25.3882 17.145 26.0345V27.28L26.775 27.28V26.0345Z" stroke="#9095A1" stroke-width="2.568" stroke-miterlimit="10" stroke-linecap="round"/>
<path d="M21.96 19.785C23.4374 19.785 24.635 18.5874 24.635 17.11C24.635 15.6326 23.4374 14.435 21.96 14.435C20.4827 14.435 19.285 15.6326 19.285 17.11C19.285 18.5874 20.4827 19.785 21.96 19.785Z" stroke="#9095A1" stroke-width="2.568" stroke-miterlimit="10" stroke-linecap="square"/>
</svg>
