<svg width="24" height="24" viewBox="0 0 24 24" fill="none" xmlns="http://www.w3.org/2000/svg">
<path d="M3.82001 12.17C2.26247 13.7313 2.26247 16.2587 3.82001 17.82L7.10001 21.11H12.18L14.36 18.93L5.71001 10.28L3.82001 12.17Z" fill="black"/>
<path d="M20.18 7.45L17.18 4.45C16.4297 3.69889 15.4116 3.27686 14.35 3.27686C13.2884 3.27686 12.2703 3.69889 11.52 4.45L10.42 5.56L19.07 14.21L20.17 13.1C21.7303 11.5415 21.7348 9.01407 20.18 7.45Z" fill="black"/>
<path fill-rule="evenodd" clip-rule="evenodd" d="M15.42 17.87L6.77001 9.22L9.37001 6.62L18.02 15.27L15.42 17.87ZM15.96 14.21C15.96 13.7958 15.6242 13.46 15.21 13.46H14.1C13.6858 13.46 13.35 13.7958 13.35 14.21C13.35 14.6242 13.6858 14.96 14.1 14.96H15.21C15.6242 14.96 15.96 14.6242 15.96 14.21ZM13 11.23C13.4142 11.23 13.75 11.5658 13.75 11.98C13.75 12.3942 13.4142 12.73 13 12.73H11.87C11.4558 12.73 11.12 12.3942 11.12 11.98C11.12 11.5658 11.4558 11.23 11.87 11.23H13ZM11.51 9.75C11.51 9.33579 11.1742 9 10.76 9H9.65001C9.23579 9 8.90001 9.33579 8.90001 9.75C8.90001 10.1642 9.23579 10.5 9.65001 10.5H10.76C11.1742 10.5 11.51 10.1642 11.51 9.75Z" fill="black"/>
</svg>
