<svg width="24" height="24" viewBox="0 0 24 24" fill="none" xmlns="http://www.w3.org/2000/svg">
<path fill-rule="evenodd" clip-rule="evenodd" d="M8.84344 21.2966L3.56343 22.0566C3.11868 22.1176 2.67107 21.9663 2.35462 21.6479C2.03817 21.3295 1.88962 20.8809 1.95344 20.4366L2.71343 15.1566C2.81211 14.4409 3.14223 13.7771 3.65343 13.2666L13.4034 3.52656C14.6588 2.22678 16.5178 1.7055 18.266 2.16308C20.0141 2.62066 21.3793 3.98588 21.8369 5.73403C22.2945 7.48218 21.7732 9.34119 20.4734 10.5966L10.7334 20.3566C10.2229 20.8678 9.55914 21.1979 8.84344 21.2966ZM12.2334 10.7066C11.941 10.9994 11.941 11.4737 12.2334 11.7666C12.5263 12.059 13.0006 12.059 13.2934 11.7666L17.5034 7.55656C17.7788 7.26105 17.7707 6.80055 17.4851 6.51494C17.1994 6.22933 16.7389 6.22121 16.4434 6.49656L12.2334 10.7066Z" fill="black"/>
</svg>
