<svg width="24" height="24" viewBox="0 0 24 24" fill="none" xmlns="http://www.w3.org/2000/svg">
<path d="M2.35009 9.55009L10.2701 13.5501C11.0778 13.9293 12.0124 13.9293 12.8201 13.5501L21.6101 9.55009C21.9284 9.37397 22.126 9.03888 22.126 8.67509C22.126 8.3113 21.9284 7.97621 21.6101 7.80009L12.8201 3.80009C12.437 3.62626 12.0208 3.53755 11.6001 3.54009C11.1388 3.5398 10.6837 3.64588 10.2701 3.85009L2.35009 7.85009C2.05587 8.03243 1.87687 8.35395 1.87687 8.70009C1.87687 9.04623 2.05587 9.36775 2.35009 9.55009Z" fill="white"/>
<path d="M21.2901 12.0001L12.4401 15.6901C11.8988 15.9461 11.2714 15.9461 10.7301 15.6901L2.89009 12.0001C2.51164 11.8297 2.06647 11.9944 1.89009 12.3701C1.80545 12.5516 1.79693 12.7595 1.86643 12.9473C1.93593 13.1351 2.07768 13.2874 2.26009 13.3701L10.0801 17.0001C10.566 17.237 11.0995 17.3601 11.6401 17.3601C12.1228 17.3609 12.6001 17.2586 13.0401 17.0601L21.8601 13.3901C22.2439 13.2327 22.4275 12.7939 22.2701 12.4101C22.1127 12.0263 21.6739 11.8427 21.2901 12.0001Z" fill="white"/>
<path d="M21.2901 15.0801L12.4401 18.7701C11.8988 19.0261 11.2714 19.0261 10.7301 18.7701L2.89009 15.0901C2.64536 14.9776 2.35918 15.0041 2.13936 15.1598C1.91953 15.3155 1.79946 15.5766 1.82436 15.8448C1.84926 16.113 2.01536 16.3476 2.26009 16.4601L10.0801 20.0801C10.5653 20.3201 11.0988 20.4466 11.6401 20.4501C12.1235 20.4475 12.6008 20.3418 13.0401 20.1401L21.8601 16.4701C22.0497 16.395 22.2005 16.246 22.2778 16.0573C22.3552 15.8687 22.3524 15.6566 22.2701 15.4701C22.1054 15.0936 21.6684 14.9196 21.2901 15.0801Z" fill="white"/>
</svg>
