<svg width="40" height="41" viewBox="0 0 40 41" fill="none" xmlns="http://www.w3.org/2000/svg">
<path d="M17 9.28302L34 9.28302" stroke="#666666" stroke-width="2.4" stroke-miterlimit="10" stroke-linecap="square"/>
<path d="M17 20.283L34 20.283" stroke="#666666" stroke-width="2.4" stroke-miterlimit="10" stroke-linecap="square"/>
<path d="M17 31.283L34 31.283" stroke="#666666" stroke-width="2.4" stroke-miterlimit="10" stroke-linecap="square"/>
<path d="M9 12.283C10.6569 12.283 12 10.9399 12 9.28302C12 7.62617 10.6569 6.28302 9 6.28302C7.34315 6.28302 6 7.62617 6 9.28302C6 10.9399 7.34315 12.283 9 12.283Z" stroke="#666666" stroke-width="2.4" stroke-miterlimit="10" stroke-linecap="square"/>
<path d="M9 23.283C10.6569 23.283 12 21.9399 12 20.283C12 18.6262 10.6569 17.283 9 17.283C7.34315 17.283 6 18.6262 6 20.283C6 21.9399 7.34315 23.283 9 23.283Z" stroke="#666666" stroke-width="2.4" stroke-miterlimit="10" stroke-linecap="square"/>
<path d="M9 34.283C10.6569 34.283 12 32.9399 12 31.283C12 29.6262 10.6569 28.283 9 28.283C7.34315 28.283 6 29.6262 6 31.283C6 32.9399 7.34315 34.283 9 34.283Z" stroke="#666666" stroke-width="2.4" stroke-miterlimit="10" stroke-linecap="square"/>
</svg>
