<svg width="30" height="31" viewBox="0 0 30 31" fill="none" xmlns="http://www.w3.org/2000/svg">
<path d="M24.63 15.5L24.63 8.00999L5.36998 8.00999C4.18763 8.00999 3.22998 7.05235 3.22998 5.87L3.22998 24.06C3.22998 25.833 4.66699 27.27 6.43998 27.27L24.63 27.27V19.78" stroke="#9095A1" stroke-width="2.568" stroke-miterlimit="10" stroke-linecap="round"/>
<path d="M20.35 4.79V3.72L5.36998 3.72C4.18763 3.72 3.22998 4.67765 3.22998 5.86C3.22998 7.04235 4.18763 8 5.36998 8" stroke="#9095A1" stroke-width="2.568" stroke-miterlimit="10" stroke-linecap="round"/>
<path d="M26.7849 19.78H21.4349C20.2526 19.78 19.2949 18.8224 19.2949 17.64C19.2949 16.4577 20.2526 15.5 21.4349 15.5L26.7849 15.5V19.78Z" stroke="#9095A1" stroke-width="2.568" stroke-miterlimit="10" stroke-linecap="round"/>
</svg>
