<svg width="24" height="24" viewBox="0 0 24 24" fill="none" xmlns="http://www.w3.org/2000/svg">
<path d="M16.48 4.24057L10.95 13.9206C10.8436 14.1047 10.8427 14.3314 10.9476 14.5165C11.0524 14.7015 11.2474 14.8172 11.46 14.8206H14.61C15.2672 14.8206 15.8 15.3534 15.8 16.0106V20.0106C15.8007 20.2749 15.9744 20.5077 16.2276 20.5836C16.4808 20.6596 16.7539 20.5609 16.9 20.3406L22.34 12.1706C22.4621 11.9896 22.4743 11.7559 22.3717 11.5632C22.269 11.3705 22.0683 11.2502 21.85 11.2506H18.74C18.0773 11.2506 17.54 10.7133 17.54 10.0506V4.51057C17.5076 4.27237 17.334 4.07762 17.101 4.01829C16.868 3.95895 16.6224 4.04688 16.48 4.24057Z" fill="white"/>
<path d="M8.75 8.11057H3.95C3.53579 8.11057 3.2 7.77479 3.2 7.36057C3.2 6.94636 3.53579 6.61057 3.95 6.61057H8.75C9.16421 6.61057 9.5 6.94636 9.5 7.36057C9.5 7.77479 9.16421 8.11057 8.75 8.11057Z" fill="white"/>
<path d="M7.55 12.8406H2.75C2.48205 12.8406 2.23446 12.6976 2.10048 12.4656C1.96651 12.2335 1.96651 11.9476 2.10048 11.7156C2.23446 11.4835 2.48205 11.3406 2.75 11.3406H7.55C7.96421 11.3406 8.3 11.6764 8.3 12.0906C8.3 12.5048 7.96421 12.8406 7.55 12.8406Z" fill="white"/>
<path d="M8.75 18.6106H3.95C3.53579 18.6106 3.2 18.2748 3.2 17.8606C3.2 17.4464 3.53579 17.1106 3.95 17.1106H8.75C9.16421 17.1106 9.5 17.4464 9.5 17.8606C9.5 18.2748 9.16421 18.6106 8.75 18.6106Z" fill="white"/>
</svg>
