<svg width="24" height="24" viewBox="0 0 24 24" fill="none" xmlns="http://www.w3.org/2000/svg">
<path fill-rule="evenodd" clip-rule="evenodd" d="M5.55463 20.3261L3.01942 12.9463C3.02823 12.9903 3.03999 13.0337 3.05463 13.0761L5.55463 20.3261ZM2 7.64419L2.04018 8.05008C2.01346 7.91645 2 7.78049 2 7.64419Z" fill="#4285F4"/>
<path d="M19.0026 20.6586C19.0491 20.6055 19.0898 20.5475 19.1242 20.4858L21.0078 17.0952C21.5465 16.1255 21.6099 14.9263 21.0723 13.8999C20.814 13.4067 20.4866 12.8171 20.1556 12.3218C19.991 12.0756 19.8102 11.8294 19.6228 11.6239C19.4646 11.4505 19.1882 11.1754 18.8163 11.0515C18.5979 10.9787 18.4031 10.7916 18.2381 10.495C18.1039 10.2535 18.031 10.0116 18 9.88995V3.5796C18 2.94334 17.7472 2.33317 17.2974 1.88329C16.601 1.18697 15.4925 1.12556 14.7235 1.74072L14.6203 1.82329C14.0929 2.24521 13.7587 2.86261 13.6936 3.53464L13.5644 4.8695L13.3294 3.41207C13.2306 2.79946 12.9075 2.24547 12.423 1.8579L12.2527 1.72171C11.4973 1.11737 10.4082 1.1777 9.72416 1.86174C9.24676 2.33921 8.99786 2.99922 9.04132 3.67314L9.14048 5.21005L8.82364 4.29471C8.67453 3.86394 8.39998 3.48765 8.03541 3.21419L7.96886 3.16427C7.1853 2.57661 6.07358 2.73533 5.48589 3.51893C5.14494 3.97362 4.99677 4.54449 5.07376 5.1077L5.34893 7.11985L5.24748 6.90003C5.20587 6.80991 5.15761 6.72269 5.1031 6.63935C4.18411 5.23427 2 5.88467 2 7.56374V7.64419L2.04018 8.05008L3.01942 12.9463L5.55463 20.3261C5.56893 20.3676 5.58596 20.4081 5.60559 20.4474C5.91718 21.0705 6.652 21.7001 7.72628 22.1672C8.83437 22.649 10.3916 23.0001 12.5 23.0001C14.6744 23.0001 16.2726 22.4548 17.3456 21.8825C17.8795 21.5977 18.2787 21.3089 18.5516 21.083L18.8678 20.7994L19.0026 20.6586Z" fill="#4285F4"/>
</svg>
