<svg width="34" height="34" viewBox="0 0 34 34" fill="none" xmlns="http://www.w3.org/2000/svg">
<g clip-path="url(#clip0_229_4)">
<path d="M28.5364 17.5101L12.7841 26.5358C12.6509 26.6135 12.497 26.6483 12.3433 26.6353C12.1896 26.6224 12.0437 26.5624 11.9253 26.4635C11.807 26.3646 11.722 26.2316 11.682 26.0827C11.6419 25.9338 11.6488 25.7761 11.7016 25.6312L14.6121 17.244C14.6703 17.0808 14.6686 16.9023 14.6074 16.7402L11.5387 8.40952C11.4832 8.26564 11.4734 8.10815 11.5106 7.95849C11.5478 7.80884 11.6303 7.67429 11.7467 7.57318C11.8632 7.47207 12.0079 7.40931 12.1613 7.39346C12.3147 7.37761 12.4693 7.40943 12.604 7.48459L28.5242 16.2108C28.6413 16.2735 28.7394 16.3666 28.8082 16.4802C28.877 16.5939 28.914 16.724 28.9153 16.8568C28.9165 16.9897 28.882 17.1204 28.8154 17.2354C28.7487 17.3503 28.6524 17.4452 28.5364 17.5101Z" stroke="#95A1AD" stroke-width="2.25" stroke-linecap="round" stroke-linejoin="round"/>
<path d="M14.702 16.9913L20.6945 16.9346" stroke="#95A1AD" stroke-width="2.25" stroke-linecap="round" stroke-linejoin="round"/>
</g>
<defs>
<clipPath id="clip0_229_4">
<rect width="24" height="24" fill="white" transform="matrix(0.700389 -0.713761 -0.713761 -0.700389 17.1299 33.9396)"/>
</clipPath>
</defs>
</svg>
