<svg width="24" height="24" viewBox="0 0 24 24" fill="none" xmlns="http://www.w3.org/2000/svg">
<path d="M20.3002 3.70004L22.0002 8.30004C22.328 9.20107 22.2053 10.2045 21.6702 11C21.0631 11.8851 20.0727 12.4303 19.0002 12.47C17.3264 12.5979 15.815 11.4708 15.4602 9.83004C15.4602 9.83004 15.4002 9.83004 15.3902 9.83004C15.0587 11.4212 13.6241 12.5385 12.0002 12.47C10.3837 12.5285 8.96043 11.4135 8.63019 9.83004C8.63019 9.83004 8.57019 9.83004 8.56019 9.83004C8.36659 10.71 7.83065 11.4767 7.07075 11.9608C6.31085 12.4448 5.3895 12.6065 4.51019 12.41C3.7286 12.2816 3.01898 11.8771 2.51019 11.27C1.85046 10.4344 1.68302 9.31179 2.07019 8.32004L3.73019 3.70004C4.12019 2.71676 5.08276 2.0817 6.14019 2.11004H17.8902C18.9476 2.0817 19.9102 2.71676 20.3002 3.70004Z" fill="white"/>
<path d="M19.1002 14V19.1C19.0845 19.6597 18.847 20.1902 18.44 20.5747C18.033 20.9592 17.4899 21.1662 16.9302 21.15H14.1002V18C14.0463 16.9486 13.1518 16.1391 12.1002 16.19C11.5805 16.1843 11.0775 16.3734 10.6902 16.72C10.3176 17.0412 10.1024 17.5081 10.1002 18V21.15H7.27019C6.70371 21.1662 6.15456 20.9538 5.74638 20.5606C5.33821 20.1675 5.10533 19.6267 5.10019 19.06V14H5.18019C6.43353 14.0024 7.64387 13.5432 8.58019 12.71C10.5426 14.422 13.4678 14.422 15.4302 12.71C16.3701 13.5503 17.5894 14.0102 18.8502 14H19.1002Z" fill="white"/>
</svg>
