<svg width="30" height="31" viewBox="0 0 30 31" fill="none" xmlns="http://www.w3.org/2000/svg">
<path d="M23.5752 10.14H26.7852" stroke="#9095A1" stroke-width="2.568" stroke-miterlimit="10"/>
<path d="M3.22119 10.14L15.4192 10.14" stroke="#9095A1" stroke-width="2.568" stroke-miterlimit="10"/>
<path d="M23.881 5.87H26.77L26.77 27.27L3.22998 27.27L3.22998 5.87L19.708 5.87" stroke="#9095A1" stroke-width="2.568" stroke-miterlimit="10"/>
<path d="M8.57031 5.85999L8.57031 10.14" stroke="#9095A1" stroke-width="2.568" stroke-miterlimit="10" stroke-linecap="square"/>
<path d="M15.6449 14.2044L13.5049 12.0644L21.4229 4.14639C22.0649 3.50439 22.9209 3.50439 23.5629 4.14639C24.2049 4.78839 24.2049 5.64439 23.5629 6.28639L15.6449 14.2044Z" stroke="#9095A1" stroke-width="2.568" stroke-miterlimit="10" stroke-linecap="round"/>
<path d="M9.42564 15.2885C10.2816 14.4325 11.5656 14.4325 12.4216 15.2885C13.2776 16.1445 13.2776 17.4285 12.4216 18.2845C11.5656 19.1405 8.67664 19.0335 8.67664 19.0335C8.67664 19.0335 8.56964 16.0375 9.42564 15.2885Z" stroke="#9095A1" stroke-width="2.568" stroke-miterlimit="10" stroke-linecap="round"/>
</svg>
