<svg width="38" height="39" viewBox="0 0 38 39" fill="none" xmlns="http://www.w3.org/2000/svg">
<path d="M29.45 10.7538L33.25 9.61383V28.6138L23.75 32.4138L14.25 28.6138L4.75 32.4138L4.75 13.4138L8.55 11.8938" stroke="#171A1F" stroke-width="2.28" stroke-miterlimit="10" stroke-linecap="square"/>
<path d="M25.6501 11.3409C25.6501 15.3385 19.0001 21.9638 19.0001 21.9638C19.0001 21.9638 12.3501 15.3385 12.3501 11.3409C12.3501 7.24263 15.7862 4.86383 19.0001 4.86383C22.2139 4.86383 25.6501 7.24263 25.6501 11.3409Z" stroke="#171A1F" stroke-width="2.28" stroke-miterlimit="10" stroke-linecap="round"/>
<path d="M19.0001 13.4138C20.0494 13.4138 20.9001 12.5632 20.9001 11.5138C20.9001 10.4645 20.0494 9.61383 19.0001 9.61383C17.9508 9.61383 17.1001 10.4645 17.1001 11.5138C17.1001 12.5632 17.9508 13.4138 19.0001 13.4138Z" stroke="#171A1F" stroke-width="2.28" stroke-miterlimit="10" stroke-linecap="square"/>
</svg>
