<svg width="30" height="31" viewBox="0 0 30 31" fill="none" xmlns="http://www.w3.org/2000/svg">
<path d="M26.995 12.8825C26.995 11.9825 26.62 6.5075 26.62 6.5075C26.62 5.6075 26.32 5.0825 25.87 4.6325C25.495 4.2575 24.895 3.8825 23.995 3.8825C23.995 3.8825 18.52 3.5075 17.62 3.5075C16.27 3.5075 15.445 3.4325 13.795 5.1575C12.97 5.9825 4.04499 14.9075 3.66999 15.2825C3.29499 15.6575 2.01999 17.1575 4.19499 19.3325L11.245 26.3825C13.42 28.5575 14.92 27.2825 15.295 26.9075C15.67 26.5325 24.595 17.6075 25.42 16.7825C27.07 15.0575 26.995 14.1575 26.995 12.8825ZM17.47 15.8075L20.545 17.2325L19.42 19.2575L16.57 17.3825C16.495 17.3075 16.42 17.3075 16.345 17.3075C16.27 17.3075 16.195 17.3075 16.12 17.3825C15.97 17.4575 15.895 17.6075 15.895 17.7575L16.12 21.1325H13.87L14.02 17.7575C14.02 17.6075 13.945 17.4575 13.795 17.3825C13.645 17.3075 13.495 17.3075 13.42 17.3825L10.795 19.2575L9.59499 17.3075L12.67 15.8075C12.82 15.7325 12.895 15.5825 12.895 15.4325C12.895 15.2825 12.82 15.1325 12.67 15.0575L9.59499 13.6325L10.72 11.6075L13.57 13.4825C13.72 13.5575 13.87 13.5575 13.945 13.4825C14.095 13.4075 14.17 13.2575 14.17 13.1075L13.945 9.7325H16.195L16.045 13.1075C16.045 13.2575 16.12 13.4075 16.27 13.4825C16.42 13.5575 16.57 13.5575 16.645 13.4825L19.42 11.6075L20.62 13.5575L17.545 15.0575C17.395 15.1325 17.32 15.2825 17.32 15.4325C17.245 15.5825 17.32 15.7325 17.47 15.8075ZM22.72 9.3575C21.895 9.3575 21.295 8.6825 21.295 7.9325C21.295 7.1075 21.97 6.5075 22.72 6.5075C23.545 6.5075 24.145 7.1825 24.145 7.9325C24.145 8.7575 23.47 9.3575 22.72 9.3575Z" fill="#9095A1"/>
</svg>
