<svg width="24" height="24" viewBox="0 0 24 24" fill="none" xmlns="http://www.w3.org/2000/svg">
<path d="M1.62012 14.75C1.62012 13.5074 2.62748 12.5 3.87012 12.5H7.37012C8.61276 12.5 9.62012 13.5074 9.62012 14.75V18.25C9.62012 19.4926 8.61276 20.5 7.37012 20.5H3.87012C2.62748 20.5 1.62012 19.4926 1.62012 18.25V14.75Z" fill="white"/>
<path d="M13.6201 13.75C13.2059 13.75 12.8701 14.0858 12.8701 14.5C12.8701 14.9142 13.2059 15.25 13.6201 15.25H18.6201C19.0343 15.25 19.3701 14.9142 19.3701 14.5C19.3701 14.0858 19.0343 13.75 18.6201 13.75H13.6201Z" fill="white"/>
<path d="M21.6201 17.75H13.6201C13.2059 17.75 12.8701 18.0858 12.8701 18.5C12.8701 18.9142 13.2059 19.25 13.6201 19.25H21.6201C22.0343 19.25 22.3701 18.9142 22.3701 18.5C22.3701 18.0858 22.0343 17.75 21.6201 17.75Z" fill="white"/>
<path d="M1.62012 5.5C1.62012 4.39543 2.51555 3.5 3.62012 3.5H19.6201C20.7247 3.5 21.6201 4.39543 21.6201 5.5V8.5C21.6201 9.60457 20.7247 10.5 19.6201 10.5H3.62012C2.51555 10.5 1.62012 9.60457 1.62012 8.5V5.5Z" fill="white"/>
</svg>
