<svg width="24" height="24" viewBox="0 0 24 24" fill="none" xmlns="http://www.w3.org/2000/svg">
<path fill-rule="evenodd" clip-rule="evenodd" d="M22.213 7.76657C22.5811 8.65329 22.3516 9.67573 21.6398 10.32C21.165 10.7488 20.8933 11.3581 20.8914 11.9978C20.8895 12.6375 21.1576 13.2484 21.6298 13.68C22.3398 14.3231 22.5697 15.3428 22.2043 16.2284C21.8388 17.114 20.9567 17.6748 19.9998 17.63C19.3628 17.6013 18.7432 17.8417 18.2923 18.2926C17.8415 18.7434 17.601 19.3631 17.6298 20C17.6506 20.9338 17.0974 21.785 16.2357 22.1452C15.374 22.5053 14.3796 22.3009 13.7298 21.63C13.2995 21.1566 12.6895 20.8866 12.0498 20.8866C11.41 20.8866 10.8 21.1566 10.3698 21.63C9.73563 22.3829 8.68851 22.6413 7.77694 22.2698C6.86536 21.8983 6.29707 20.9817 6.36977 20C6.3985 19.3631 6.15805 18.7434 5.7072 18.2926C5.25636 17.8417 4.6367 17.6013 3.99977 17.63C3.06602 17.6509 2.21479 17.0977 1.85462 16.2359C1.49446 15.3742 1.69888 14.3798 2.36977 13.73C2.84323 13.2998 3.11317 12.6897 3.11317 12.05C3.11317 11.4103 2.84323 10.8002 2.36977 10.37C1.61688 9.73587 1.3585 8.68876 1.72997 7.77718C2.10144 6.86561 3.01809 6.29732 3.99977 6.37001C4.6367 6.39875 5.25636 6.15829 5.7072 5.70745C6.15805 5.25661 6.3985 4.63695 6.36977 4.00001C6.32497 3.04304 6.88579 2.16096 7.77138 1.79552C8.65696 1.43007 9.67664 1.65994 10.3198 2.37001C10.75 2.84347 11.36 3.11342 11.9998 3.11342C12.6395 3.11342 13.2495 2.84347 13.6798 2.37001C14.3229 1.65994 15.3426 1.43007 16.2282 1.79552C17.1137 2.16096 17.6746 3.04304 17.6298 4.00001C17.601 4.63695 17.8415 5.25661 18.2923 5.70745C18.7432 6.15829 19.3628 6.39875 19.9998 6.37001C20.9586 6.32065 21.8448 6.87986 22.213 7.76657ZM10.1598 9.75001C10.1598 9.3358 9.82398 9.00001 9.40977 9.00001C8.9978 9.0054 8.66515 9.33805 8.65977 9.75001C8.65977 10.1642 8.99555 10.5 9.40977 10.5C9.82398 10.5 10.1598 10.1642 10.1598 9.75001ZM14.6798 15C14.2656 15 13.9298 14.6642 13.9298 14.25C13.9298 13.8358 14.2656 13.5 14.6798 13.5C15.094 13.5 15.4298 13.8358 15.4298 14.25C15.4244 14.662 15.0917 14.9946 14.6798 15ZM9.64977 15.41L15.4098 9.64001V9.65001C15.6851 9.3545 15.677 8.894 15.3914 8.60839C15.1058 8.32278 14.6453 8.31465 14.3498 8.59001L8.58977 14.35C8.44682 14.4893 8.3662 14.6804 8.3662 14.88C8.3662 15.0796 8.44682 15.2707 8.58977 15.41C8.72761 15.5547 8.92001 15.6345 9.11977 15.63C9.31883 15.631 9.50988 15.5516 9.64977 15.41Z" fill="white"/>
</svg>
