<svg width="30" height="31" viewBox="0 0 30 31" fill="none" xmlns="http://www.w3.org/2000/svg">
<path d="M24.6301 15.505C24.6301 23.071 19.2041 27.275 15.0001 27.275C10.7961 27.275 5.37012 23.071 5.37012 15.505" stroke="#9095A1" stroke-width="2.568" stroke-miterlimit="10" stroke-linecap="round"/>
<path d="M3.22998 15.5L26.77 15.5" stroke="#9095A1" stroke-width="2.568" stroke-miterlimit="10" stroke-linecap="square"/>
<path d="M14.9999 15.5C16.1818 15.5 17.1399 14.5419 17.1399 13.36C17.1399 12.1781 16.1818 11.22 14.9999 11.22C13.818 11.22 12.8599 12.1781 12.8599 13.36C12.8599 14.5419 13.818 15.5 14.9999 15.5Z" stroke="#9095A1" stroke-width="2.568" stroke-miterlimit="10" stroke-linecap="square"/>
<path d="M4.2998 15.495V14.425C4.2998 8.51554 9.09036 3.72499 14.9998 3.72499C20.9093 3.72499 25.6998 8.51554 25.6998 14.425V15.495" stroke="#9095A1" stroke-width="2.568" stroke-miterlimit="10" stroke-linecap="round"/>
<path d="M15 4.785V3.715V6.925" stroke="#9095A1" stroke-width="2.568" stroke-miterlimit="10" stroke-linecap="square"/>
</svg>
