<svg width="30" height="31" viewBox="0 0 30 31" fill="none" xmlns="http://www.w3.org/2000/svg">
<path d="M6.43004 10.14C5.24769 10.14 4.29004 9.18237 4.29004 8.00002C4.29004 6.81767 5.24769 5.86002 6.43004 5.86002C7.61239 5.86002 8.57004 6.81767 8.57004 8.00002C8.57004 9.18237 7.61239 10.14 6.43004 10.14Z" stroke="#9095A1" stroke-width="2.568" stroke-miterlimit="10" stroke-linecap="round"/>
<path d="M8.56484 25.135H5.35484L5.35484 20.855H3.21484L3.21484 15.505C3.21484 14.3227 4.17249 13.365 5.35484 13.365H6.42484" stroke="#9095A1" stroke-width="2.568" stroke-miterlimit="10" stroke-linecap="round"/>
<path d="M23.5697 10.14C24.752 10.14 25.7097 9.18237 25.7097 8.00002C25.7097 6.81767 24.752 5.86002 23.5697 5.86002C22.3873 5.86002 21.4297 6.81767 21.4297 8.00002C21.4297 9.18237 22.3873 10.14 23.5697 10.14Z" stroke="#9095A1" stroke-width="2.568" stroke-miterlimit="10" stroke-linecap="round"/>
<path d="M21.4351 25.135H24.6451L24.6451 20.855H26.7851V15.505C26.7851 14.3227 25.8274 13.365 24.6451 13.365H23.5751" stroke="#9095A1" stroke-width="2.568" stroke-miterlimit="10" stroke-linecap="round"/>
<path d="M15 10.14C13.227 10.14 11.79 8.70299 11.79 6.93C11.79 5.15701 13.227 3.72 15 3.72C16.773 3.72 18.21 5.15701 18.21 6.93C18.21 8.70299 16.773 10.14 15 10.14Z" stroke="#9095A1" stroke-width="2.568" stroke-miterlimit="10" stroke-linecap="round"/>
<path d="M18.2099 27.275H11.7899L11.7899 20.855H9.6499L9.6499 15.505C9.6499 14.3227 10.6076 13.365 11.7899 13.365L18.2099 13.365C19.3923 13.365 20.3499 14.3227 20.3499 15.505V21.925H18.2099L18.2099 27.275Z" stroke="#9095A1" stroke-width="2.568" stroke-miterlimit="10" stroke-linecap="round"/>
</svg>
