<svg width="26" height="49" viewBox="0 0 26 49" fill="none" xmlns="http://www.w3.org/2000/svg">
<path d="M24.4598 36.9291L24.8429 27.3368L20.0467 27.1452L19.6636 36.7376C19.5056 40.6944 16.1388 43.8025 12.182 43.6445C8.22515 43.4864 5.11704 40.1197 5.27508 36.1629L5.65822 26.5705L0.862043 26.379L0.478909 35.9713C0.214545 42.59 5.37171 48.1763 11.9904 48.4407C18.6092 48.705 24.1954 43.5479 24.4598 36.9291ZM5.84979 21.7743L6.23292 12.182C6.39097 8.22515 9.75769 5.11704 13.7145 5.27508C17.6714 5.43313 20.7795 8.79985 20.6215 12.7567L20.2383 22.349L25.0345 22.5406L25.4176 12.9483C25.682 6.32954 20.5248 0.743269 13.9061 0.478906C7.28738 0.214543 1.70111 5.3717 1.43675 11.9904L1.05361 21.5828L5.84979 21.7743ZM15.7295 14.9632L14.9632 34.1479L10.167 33.9564L10.9333 14.7717L15.7295 14.9632Z" fill="black"/>
</svg>
