<svg width="16" height="17" viewBox="0 0 16 17" fill="none" xmlns="http://www.w3.org/2000/svg">
<path d="M1.94264 9.17431C1.65942 8.76938 1.65942 8.23062 1.94264 7.82569C2.83925 6.5563 5.04686 3.94 8.00003 3.94C10.9532 3.94 13.1608 6.5563 14.0574 7.82569C14.3407 8.23062 14.3407 8.76938 14.0574 9.17431C13.1608 10.4437 10.9532 13.06 8.00003 13.06C5.04686 13.06 2.83925 10.4437 1.94264 9.17431Z" stroke="#FBBC05" stroke-width="1.368" stroke-miterlimit="10" stroke-linecap="round"/>
<path d="M7.99997 10.78C9.25918 10.78 10.28 9.75921 10.28 8.5C10.28 7.24079 9.25918 6.22 7.99997 6.22C6.74076 6.22 5.71997 7.24079 5.71997 8.5C5.71997 9.75921 6.74076 10.78 7.99997 10.78Z" stroke="#FBBC05" stroke-width="1.368" stroke-miterlimit="10" stroke-linecap="square"/>
</svg>
