<svg width="40" height="41" viewBox="0 0 40 41" fill="none" xmlns="http://www.w3.org/2000/svg">
<path d="M9 23.5L9 34.5L31 34.5L31 23.5" stroke="#666666" stroke-width="2.4" stroke-miterlimit="10" stroke-linecap="square"/>
<path d="M34.9731 15.5C34.7184 17.7779 32.7922 19.5004 30.5001 19.5C29.1394 19.4789 27.8579 18.8565 27.0001 17.8C26.1537 18.8708 24.865 19.4967 23.5001 19.5C22.1385 19.4828 20.8554 18.8596 20.0001 17.8C19.1448 18.8596 17.8617 19.4828 16.5001 19.5C15.1352 19.4967 13.8465 18.8708 13.0001 17.8C12.1362 18.8487 10.8585 19.4694 9.5001 19.5C7.20797 19.5004 5.28178 17.7779 5.0271 15.5L11.0001 6.5L29.0001 6.5L34.9731 15.5Z" stroke="#666666" stroke-width="2.4" stroke-miterlimit="10" stroke-linecap="round"/>
<path d="M17 34.5L17 26.5H23V34.5" stroke="#666666" stroke-width="2.4" stroke-miterlimit="10"/>
</svg>
