<svg width="20" height="20" viewBox="0 0 20 20" fill="none" xmlns="http://www.w3.org/2000/svg">
<path d="M7.75 4.42C8.16196 4.41461 8.49461 4.08196 8.5 3.67V0.75C8.5 0.335786 8.16421 0 7.75 0C7.33579 0 7 0.335786 7 0.75V3.67C7 4.08421 7.33579 4.42 7.75 4.42Z" fill="#4285F4"/>
<path d="M2.46838 2.42838C2.75399 2.14277 3.21449 2.13464 3.51 2.41L5.61 4.47C5.75295 4.60929 5.83357 4.80041 5.83357 5C5.83357 5.19959 5.75295 5.39071 5.61 5.53C5.47077 5.67261 5.27929 5.75209 5.08 5.75C4.86718 5.76219 4.65945 5.68201 4.51 5.53L2.45 3.47C2.17464 3.17449 2.18277 2.71399 2.46838 2.42838Z" fill="#4285F4"/>
<path d="M9.33 7.16L18.48 10.06C19.1282 10.2547 19.6019 10.8115 19.6904 11.4825C19.7788 12.1534 19.4656 12.8139 18.89 13.17L15.69 15.17C15.4834 15.3066 15.3066 15.4834 15.17 15.69L13.17 18.89C12.8039 19.4518 12.1447 19.7496 11.4811 19.6529C10.8176 19.5563 10.2707 19.0829 10.08 18.44L7.21 9.28C7.01252 8.67809 7.17041 8.01628 7.61834 7.56835C8.06628 7.12041 8.72809 6.96252 9.33 7.16Z" fill="#4285F4"/>
<path d="M11.08 4.16C10.9346 4.29951 10.7415 4.37821 10.54 4.38C10.3358 4.36719 10.1451 4.27364 10.01 4.12C9.86705 3.98071 9.78643 3.78959 9.78643 3.59C9.78643 3.39041 9.86705 3.19929 10.01 3.06L12.08 1.06C12.2107 0.911927 12.3953 0.822275 12.5925 0.811006C12.7897 0.799737 12.9832 0.867785 13.13 1C13.4225 1.29282 13.4225 1.76718 13.13 2.06L11.08 4.16Z" fill="#4285F4"/>
<path d="M3.14 9.97L1.08 12.06C0.820702 12.3429 0.820702 12.7771 1.08 13.06C1.22052 13.2007 1.41115 13.2798 1.61 13.28C1.808 13.2757 1.99715 13.1972 2.14 13.06L4.2 11.06C4.49245 10.7672 4.49245 10.2928 4.2 10C4.0648 9.85304 3.87594 9.76695 3.67633 9.7613C3.47672 9.75565 3.28329 9.83092 3.14 9.97Z" fill="#4285F4"/>
<path d="M0.75 7H3.67C4.08421 7 4.42 7.33579 4.42 7.75C4.42 8.16421 4.08421 8.5 3.67 8.5H0.75C0.335786 8.5 0 8.16421 0 7.75C0 7.33579 0.335786 7 0.75 7Z" fill="#4285F4"/>
</svg>
